<?xml version="1.0" encoding="utf-8"?>
<!-- Generator: Adobe Illustrator 17.0.0, SVG Export Plug-In . SVG Version: 6.00 Build 0)  -->
<!DOCTYPE svg PUBLIC "-//W3C//DTD SVG 1.1//EN" "http://www.w3.org/Graphics/SVG/1.1/DTD/svg11.dtd">
<svg version="1.1" id="Capa_1" xmlns="http://www.w3.org/2000/svg" xmlns:xlink="http://www.w3.org/1999/xlink" x="0px" y="0px"
	 width="512px" height="378.038px" viewBox="0 63.3 512 378.038" enable-background="new 0 63.3 512 378.038" xml:space="preserve">
<g>
	<path fill="#E5646E" d="M20.159,371.738c7.365,17.858,24.939,30.431,45.456,30.431h188.436v-30.431H20.171H20.159z"/>
	<polygon fill="#E5646E" points="16.457,324.92 16.458,324.92 16.458,324.921 254.051,324.921 254.051,278.105 16.457,278.105 	"/>
	<rect x="0" y="279.594" fill="#DB4655" width="9" height="47.188"/>
	<path fill="#DB4655" d="M9,411.726v-40.361H0v30.673c0,9.122,7.395,16.516,16.516,16.516H256v-6.828H9z"/>
	<path fill="#DB4655" d="M65.615,402.169c-20.517,0-38.09-12.573-45.456-30.431H9v40.043h245.051v-9.612H65.615z"/>
	<rect x="9" y="279.594" fill="#DB4655" width="7.516" height="47.188"/>
	<path fill="#5055A0" d="M25.856,254.44c-0.735-1.225-1.166-2.651-1.166-4.18c0-4.524,3.624-8.193,8.153-8.193h0.08
		c2.584,0,4.883,1.197,6.384,3.063l10.873-7.525c-0.579-1.12-0.913-2.386-0.913-3.731c0-4.524,3.624-8.193,8.153-8.193h0.08
		c2.398,0,4.546,1.035,6.044,2.674l10.987-7.604c-0.439-1-0.685-2.103-0.685-3.263c0-4.524,3.624-8.193,8.153-8.193h0.08
		c2.21,0,4.21,0.878,5.683,2.298l11.157-7.721c-0.314-0.866-0.495-1.796-0.495-2.77c0-4.524,3.624-8.193,8.153-8.193h0.08
		c2.02,0,3.865,0.733,5.293,1.944l11.379-7.875c-0.208-0.719-0.326-1.476-0.326-2.261c0-4.524,3.624-8.193,8.153-8.193h0.08
		c1.826,0,3.506,0.604,4.868,1.613l11.598-8.027c-0.128-0.573-0.201-1.167-0.201-1.779c0-4.524,3.624-8.193,8.153-8.193h0.08
		c1.647,0,3.177,0.49,4.46,1.325l11.987-8.296c-0.061-0.4-0.102-0.806-0.102-1.222c0-4.524,3.624-8.193,8.153-8.193h0.08
		c1.446,0,2.801,0.377,3.98,1.033l12.476-8.634c-0.014-0.196-0.03-0.393-0.03-0.593c0-4.524,3.624-8.193,8.153-8.193h0.08
		c1.218,0,2.37,0.273,3.409,0.749l12.937-8.953c0.006-4.519,3.628-8.181,8.153-8.181h0.08c1.001,0,1.956,0.188,2.842,0.516
		l21.656-14.988v-5.67H16.457v170.106L25.856,254.44z M180.235,110.981h0.08c4.529,0,8.193,3.669,8.193,8.193
		s-3.665,8.193-8.194,8.193s-8.232-3.669-8.232-8.193S175.706,110.981,180.235,110.981z M155.657,127.366h0.08
		c4.529,0,8.193,3.669,8.193,8.193c-0.001,4.525-3.665,8.193-8.194,8.193c-4.529,0-8.233-3.669-8.233-8.193
		C147.503,131.035,151.128,127.366,155.657,127.366z M131.158,110.981h0.08c4.529,0,8.193,3.669,8.193,8.193
		s-3.666,8.193-8.194,8.193c-4.529,0-8.233-3.669-8.233-8.193S126.629,110.981,131.158,110.981z M131.158,143.753h0.08
		c4.529,0,8.193,3.669,8.193,8.193c-0.001,4.524-3.666,8.193-8.194,8.193c-4.529,0-8.233-3.669-8.233-8.193
		S126.629,143.753,131.158,143.753z M106.579,127.366h0.08c4.529,0,8.193,3.669,8.193,8.193c0,4.525-3.665,8.193-8.194,8.193
		c-4.529,0-8.232-3.669-8.232-8.193C98.426,131.035,102.05,127.366,106.579,127.366z M106.579,160.139h0.08
		c4.529,0,8.193,3.669,8.193,8.193c0,4.524-3.665,8.193-8.194,8.193c-4.529,0-8.232-3.669-8.232-8.193
		C98.426,163.808,102.05,160.139,106.579,160.139z M82,110.981h0.08c4.529,0,8.193,3.669,8.193,8.193s-3.665,8.193-8.194,8.193
		c-4.529,0-8.232-3.669-8.232-8.193S77.471,110.981,82,110.981z M82,143.753h0.08c4.529,0,8.193,3.669,8.193,8.193
		c-0.001,4.524-3.665,8.193-8.194,8.193c-4.529,0-8.232-3.669-8.232-8.193S77.471,143.753,82,143.753z M82,176.524h0.08
		c4.529,0,8.193,3.669,8.193,8.193c0,4.524-3.665,8.193-8.194,8.193c-4.529,0-8.232-3.669-8.232-8.193
		C73.847,180.193,77.471,176.524,82,176.524z M57.422,127.366h0.08c4.529,0,8.193,3.669,8.193,8.193
		c-0.001,4.525-3.665,8.193-8.194,8.193s-8.233-3.669-8.233-8.193C49.269,131.035,52.893,127.366,57.422,127.366z M57.422,160.139
		h0.08c4.529,0,8.193,3.669,8.193,8.193c0,4.524-3.665,8.193-8.194,8.193s-8.233-3.669-8.233-8.193
		C49.269,163.808,52.893,160.139,57.422,160.139z M57.422,192.91h0.08c4.529,0,8.193,3.669,8.193,8.193s-3.665,8.193-8.194,8.193
		s-8.233-3.669-8.233-8.193S52.893,192.91,57.422,192.91z M32.843,110.981h0.08c4.529,0,8.193,3.669,8.193,8.193
		s-3.666,8.193-8.194,8.193c-4.529,0-8.233-3.669-8.233-8.193S28.314,110.981,32.843,110.981z M32.843,143.753h0.08
		c4.529,0,8.193,3.669,8.193,8.193c-0.001,4.524-3.666,8.193-8.194,8.193c-4.529,0-8.233-3.669-8.233-8.193
		S28.314,143.753,32.843,143.753z M32.843,176.524h0.08c4.529,0,8.193,3.669,8.193,8.193c0,4.524-3.666,8.193-8.194,8.193
		c-4.529,0-8.233-3.669-8.233-8.193C24.69,180.193,28.314,176.524,32.843,176.524z M32.843,209.296h0.08
		c4.529,0,8.193,3.669,8.193,8.193s-3.666,8.193-8.194,8.193c-4.529,0-8.233-3.669-8.233-8.193S28.314,209.296,32.843,209.296z"/>
	<path fill="#5055A0" d="M16.457,278.105h237.594v-46.817V96.509l-21.656,14.988c3.123,1.156,5.351,4.153,5.351,7.677
		c0,4.524-3.665,8.193-8.194,8.193h0h0l0,0c-4.529,0-8.232-3.669-8.232-8.193c0-0.004,0.001-0.008,0.001-0.012l-12.937,8.953
		c2.822,1.294,4.784,4.137,4.784,7.444c-0.001,4.525-3.665,8.193-8.194,8.193c-4.329,0-7.895-3.354-8.202-7.6l-12.476,8.634
		c2.513,1.399,4.213,4.08,4.213,7.16c-0.001,4.524-3.665,8.193-8.194,8.193c-4.112,0-7.533-3.028-8.131-6.97l-11.987,8.296
		c2.246,1.461,3.732,3.989,3.732,6.868c0,4.524-3.665,8.193-8.194,8.193c-3.917,0-7.211-2.746-8.031-6.414l-11.598,8.027
		c2.015,1.493,3.325,3.881,3.325,6.58c0,4.524-3.666,8.193-8.194,8.193c-3.743,0-6.915-2.508-7.906-5.932l-11.379,7.875
		c1.773,1.503,2.9,3.743,2.9,6.249c0,4.524-3.665,8.193-8.194,8.193c-3.554,0-6.591-2.264-7.738-5.423l-11.157,7.721
		c1.545,1.49,2.51,3.578,2.51,5.894c0,4.524-3.665,8.193-8.194,8.193c-3.367,0-6.275-2.03-7.547-4.93l-10.987,7.604
		c1.331,1.457,2.149,3.39,2.149,5.519c0,4.524-3.665,8.193-8.194,8.193c-3.183,0-5.951-1.815-7.32-4.462l-10.873,7.525
		c1.13,1.405,1.809,3.187,1.809,5.13c0,4.524-3.666,8.193-8.194,8.193c-2.998,0-5.627-1.613-7.067-4.013l-9.399,6.505v8.633V278.105
		z M229.472,143.753h0.08c4.529,0,8.193,3.669,8.193,8.193s-3.665,8.193-8.194,8.193h0h0l0,0c-4.529,0-8.232-3.669-8.232-8.193
		S224.943,143.753,229.472,143.753z M229.472,176.524h0.08c4.529,0,8.193,3.669,8.193,8.193c0,4.524-3.665,8.193-8.194,8.193h0h0
		l0,0c-4.529,0-8.232-3.669-8.232-8.193C221.319,180.193,224.943,176.524,229.472,176.524z M229.472,209.296h0.08
		c4.529,0,8.193,3.669,8.193,8.193s-3.665,8.193-8.194,8.193h0h0l0,0c-4.529,0-8.232-3.669-8.232-8.193
		S224.943,209.296,229.472,209.296z M229.472,242.067h0.08c4.529,0,8.193,3.669,8.193,8.193s-3.665,8.193-8.194,8.193h0h0l0,0
		c-4.529,0-8.232-3.669-8.232-8.193S224.943,242.067,229.472,242.067z M204.894,160.139h0.08c4.529,0,8.193,3.669,8.193,8.193
		c0,4.524-3.665,8.193-8.194,8.193c-4.529,0-8.232-3.669-8.232-8.193C196.741,163.808,200.365,160.139,204.894,160.139z
		 M204.894,192.91h0.08c4.529,0,8.193,3.669,8.193,8.193s-3.665,8.193-8.194,8.193c-4.529,0-8.232-3.669-8.232-8.193
		S200.365,192.91,204.894,192.91z M204.894,225.682h0.08c4.529,0,8.193,3.669,8.193,8.193s-3.665,8.193-8.194,8.193
		c-4.529,0-8.232-3.669-8.232-8.193S200.365,225.682,204.894,225.682z M180.235,176.524h0.08c4.529,0,8.193,3.669,8.193,8.193
		c0,4.524-3.665,8.193-8.194,8.193s-8.232-3.669-8.232-8.193C172.082,180.193,175.706,176.524,180.235,176.524z M180.235,209.296
		h0.08c4.529,0,8.193,3.669,8.193,8.193s-3.665,8.193-8.194,8.193s-8.232-3.669-8.232-8.193S175.706,209.296,180.235,209.296z
		 M180.235,242.067h0.08c4.529,0,8.193,3.669,8.193,8.193s-3.665,8.193-8.194,8.193s-8.232-3.669-8.232-8.193
		S175.706,242.067,180.235,242.067z M155.657,192.91h0.08c4.529,0,8.193,3.669,8.193,8.193s-3.665,8.193-8.194,8.193
		c-4.529,0-8.233-3.669-8.233-8.193S151.128,192.91,155.657,192.91z M155.657,225.682h0.08c4.529,0,8.193,3.669,8.193,8.193
		s-3.665,8.193-8.194,8.193c-4.529,0-8.233-3.669-8.233-8.193S151.128,225.682,155.657,225.682z M131.158,209.296h0.08
		c4.529,0,8.193,3.669,8.193,8.193s-3.666,8.193-8.194,8.193c-4.529,0-8.233-3.669-8.233-8.193S126.629,209.296,131.158,209.296z
		 M131.158,242.067h0.08c4.529,0,8.193,3.669,8.193,8.193s-3.666,8.193-8.194,8.193c-4.529,0-8.233-3.669-8.233-8.193
		S126.629,242.067,131.158,242.067z M106.579,225.682h0.08c4.529,0,8.193,3.669,8.193,8.193s-3.665,8.193-8.194,8.193
		c-4.529,0-8.232-3.669-8.232-8.193S102.05,225.682,106.579,225.682z M82,242.067h0.08c4.529,0,8.193,3.669,8.193,8.193
		s-3.665,8.193-8.194,8.193c-4.529,0-8.232-3.669-8.232-8.193S77.471,242.067,82,242.067z"/>
	<path fill="#3F3F8F" d="M9,267.5l6.503-4.501L6,107.355l10.516-16.516C7.395,90.839,0,98.233,0,107.355v172.239l9-4.683V267.5z"/>
	<polygon fill="#3F3F8F" points="15.503,262.999 9,267.5 9,274.911 16.007,271.265 	"/>
	<polygon fill="#3F3F8F" points="9,274.911 0,279.594 9,279.594 	"/>
	<polygon fill="#3F3F8F" points="16.007,271.265 9,274.911 9,279.594 16.516,279.594 	"/>
	<polygon fill="#3F3F8F" points="15.503,262.999 16.516,262.298 16.516,90.839 6,107.355 	"/>
	<polygon fill="#3F3F8F" points="16.516,271 16.516,262.298 15.503,262.999 16.007,271.265 	"/>
	<polygon fill="#3F3F8F" points="16.007,271.265 16.516,279.594 16.516,271 	"/>
	<path fill="#FFFFFF" d="M32.923,127.366c4.528,0,8.194-3.669,8.194-8.193s-3.664-8.193-8.193-8.193h-0.08
		c-4.529,0-8.153,3.669-8.153,8.193S28.394,127.366,32.923,127.366z"/>
	<path fill="#FFFFFF" d="M32.923,192.91c4.528,0,8.194-3.669,8.194-8.193c0-4.524-3.664-8.193-8.193-8.193h-0.08
		c-4.529,0-8.153,3.669-8.153,8.193C24.69,189.241,28.394,192.91,32.923,192.91z"/>
	<path fill="#FFFFFF" d="M32.924,242.067h-0.08c-4.529,0-8.153,3.669-8.153,8.193c0,1.529,0.431,2.955,1.166,4.18l13.452-9.31
		C37.807,243.264,35.508,242.067,32.924,242.067z"/>
	<path fill="#FFFFFF" d="M32.923,258.453c4.528,0,8.194-3.669,8.194-8.193c0-1.943-0.679-3.725-1.809-5.13l-13.452,9.31
		C27.296,256.84,29.924,258.453,32.923,258.453z"/>
	<path fill="#F2F2F6" d="M32.923,160.139c4.528,0,8.193-3.669,8.194-8.193c0-4.524-3.664-8.193-8.193-8.193h-0.08
		c-4.529,0-8.153,3.669-8.153,8.193S28.394,160.139,32.923,160.139z"/>
	<path fill="#F2F2F6" d="M32.923,225.681c4.528,0,8.194-3.669,8.194-8.193s-3.664-8.193-8.193-8.193h-0.08
		c-4.529,0-8.153,3.669-8.153,8.193S28.394,225.681,32.923,225.681z"/>
	<path fill="#FFFFFF" d="M229.553,110.981h-0.08c-4.525,0-8.146,3.663-8.153,8.181l11.075-7.665
		C231.508,111.169,230.554,110.981,229.553,110.981z"/>
	<path fill="#FFFFFF" d="M229.552,127.366c4.529,0,8.194-3.669,8.194-8.193c0-3.524-2.227-6.52-5.351-7.677l-11.075,7.665
		c0,0.004-0.001,0.008-0.001,0.012C221.319,123.698,225.023,127.366,229.552,127.366z"/>
	<polygon fill="#FFFFFF" points="229.552,127.366 229.552,127.366 229.552,127.366 	"/>
	<path fill="#FFFFFF" d="M229.552,192.91c4.529,0,8.194-3.669,8.194-8.193c0-4.524-3.664-8.193-8.193-8.193h-0.08
		c-4.529,0-8.153,3.669-8.153,8.193C221.319,189.241,225.023,192.91,229.552,192.91z"/>
	<polygon fill="#FFFFFF" points="229.552,192.91 229.552,192.91 229.552,192.91 	"/>
	<path fill="#FFFFFF" d="M229.552,258.453c4.529,0,8.194-3.669,8.194-8.193s-3.664-8.193-8.193-8.193h-0.08
		c-4.529,0-8.153,3.669-8.153,8.193S225.023,258.453,229.552,258.453z"/>
	<polygon fill="#FFFFFF" points="229.552,258.453 229.552,258.453 229.552,258.453 	"/>
	<path fill="#F2F2F6" d="M229.552,160.139c4.529,0,8.194-3.669,8.194-8.193s-3.664-8.193-8.193-8.193h-0.08
		c-4.529,0-8.153,3.669-8.153,8.193S225.023,160.139,229.552,160.139z"/>
	<polygon fill="#F2F2F6" points="229.552,160.139 229.552,160.139 229.552,160.139 	"/>
	<polygon fill="#F2F2F6" points="229.552,225.681 229.552,225.681 229.552,225.681 	"/>
	<path fill="#F2F2F6" d="M229.552,225.681c4.529,0,8.194-3.669,8.194-8.193s-3.664-8.193-8.193-8.193h-0.08
		c-4.529,0-8.153,3.669-8.153,8.193S225.023,225.681,229.552,225.681z"/>
	<path fill="#F2F2F6" d="M82.08,127.366c4.529,0,8.194-3.669,8.194-8.193s-3.664-8.193-8.193-8.193H82
		c-4.529,0-8.153,3.669-8.153,8.193S77.551,127.366,82.08,127.366z"/>
	<path fill="#F2F2F6" d="M82.08,192.91c4.529,0,8.194-3.669,8.194-8.193c0-4.524-3.664-8.193-8.193-8.193H82
		c-4.529,0-8.153,3.669-8.153,8.193C73.847,189.241,77.551,192.91,82.08,192.91z"/>
	<path fill="#F2F2F6" d="M82.08,258.453c4.529,0,8.194-3.669,8.194-8.193s-3.664-8.193-8.193-8.193H82
		c-4.529,0-8.153,3.669-8.153,8.193S77.551,258.453,82.08,258.453z"/>
	<path fill="#FFFFFF" d="M82.08,160.139c4.529,0,8.193-3.669,8.194-8.193c0-4.524-3.664-8.193-8.193-8.193H82
		c-4.529,0-8.153,3.669-8.153,8.193S77.551,160.139,82.08,160.139z"/>
	<path fill="#FFFFFF" d="M82.081,209.296H82c-4.529,0-8.153,3.669-8.153,8.193c0,1.16,0.247,2.263,0.685,3.263l13.231-9.157
		C86.291,210.174,84.291,209.296,82.081,209.296z"/>
	<path fill="#FFFFFF" d="M82.08,225.681c4.529,0,8.194-3.669,8.194-8.193c0-2.316-0.964-4.404-2.51-5.894l-13.231,9.157
		C75.804,223.651,78.712,225.681,82.08,225.681z"/>
	<path fill="#FFFFFF" d="M57.501,143.752c4.529,0,8.193-3.668,8.194-8.193c0-4.524-3.664-8.193-8.193-8.193h-0.08
		c-4.529,0-8.153,3.669-8.153,8.193C49.269,140.083,52.972,143.752,57.501,143.752z"/>
	<path fill="#FFFFFF" d="M57.501,209.296c4.529,0,8.194-3.669,8.194-8.193s-3.664-8.193-8.193-8.193h-0.08
		c-4.529,0-8.153,3.669-8.153,8.193S52.972,209.296,57.501,209.296z"/>
	<path fill="#F2F2F6" d="M57.501,176.524c4.529,0,8.194-3.669,8.194-8.193c0-4.524-3.664-8.193-8.193-8.193h-0.08
		c-4.529,0-8.153,3.669-8.153,8.193C49.269,172.856,52.972,176.524,57.501,176.524z"/>
	<path fill="#F2F2F6" d="M57.502,225.682h-0.08c-4.529,0-8.153,3.669-8.153,8.193c0,1.345,0.334,2.611,0.913,3.731l13.365-9.25
		C62.048,226.716,59.9,225.682,57.502,225.682z"/>
	<path fill="#F2F2F6" d="M57.501,242.067c4.529,0,8.194-3.669,8.194-8.193c0-2.129-0.818-4.062-2.149-5.519l-13.365,9.25
		C51.55,240.252,54.319,242.067,57.501,242.067z"/>
	<path fill="#FFFFFF" d="M131.238,127.366c4.528,0,8.194-3.669,8.194-8.193s-3.664-8.193-8.193-8.193h-0.08
		c-4.529,0-8.153,3.669-8.153,8.193S126.709,127.366,131.238,127.366z"/>
	<path fill="#FFFFFF" d="M131.239,176.524h-0.08c-4.529,0-8.153,3.669-8.153,8.193c0,0.785,0.118,1.542,0.326,2.261l12.775-8.841
		C134.745,177.128,133.065,176.524,131.239,176.524z"/>
	<path fill="#FFFFFF" d="M131.238,192.91c4.528,0,8.194-3.669,8.194-8.193c0-2.7-1.311-5.087-3.325-6.58l-12.775,8.841
		C124.322,190.402,127.495,192.91,131.238,192.91z"/>
	<path fill="#FFFFFF" d="M131.238,258.453c4.528,0,8.194-3.669,8.194-8.193s-3.664-8.193-8.193-8.193h-0.08
		c-4.529,0-8.153,3.669-8.153,8.193S126.709,258.453,131.238,258.453z"/>
	<path fill="#F2F2F6" d="M131.238,160.139c4.528,0,8.193-3.669,8.194-8.193c0-4.524-3.664-8.193-8.193-8.193h-0.08
		c-4.529,0-8.153,3.669-8.153,8.193S126.709,160.139,131.238,160.139z"/>
	<path fill="#F2F2F6" d="M131.238,225.681c4.528,0,8.194-3.669,8.194-8.193s-3.664-8.193-8.193-8.193h-0.08
		c-4.529,0-8.153,3.669-8.153,8.193S126.709,225.681,131.238,225.681z"/>
	<path fill="#F2F2F6" d="M106.658,143.752c4.529,0,8.194-3.668,8.194-8.193c0-4.524-3.664-8.193-8.193-8.193h-0.08
		c-4.529,0-8.153,3.669-8.153,8.193C98.426,140.083,102.129,143.752,106.658,143.752z"/>
	<path fill="#F2F2F6" d="M106.659,192.91h-0.08c-4.529,0-8.153,3.669-8.153,8.193c0,0.974,0.18,1.904,0.495,2.77l13.032-9.019
		C110.525,193.644,108.68,192.91,106.659,192.91z"/>
	<path fill="#F2F2F6" d="M106.658,209.296c4.529,0,8.194-3.669,8.194-8.193c0-2.506-1.127-4.746-2.9-6.249l-13.032,9.019
		C100.067,207.032,103.104,209.296,106.658,209.296z"/>
	<path fill="#FFFFFF" d="M106.658,176.524c4.529,0,8.194-3.669,8.194-8.193c0-4.524-3.664-8.193-8.193-8.193h-0.08
		c-4.529,0-8.153,3.669-8.153,8.193C98.426,172.856,102.129,176.524,106.658,176.524z"/>
	<path fill="#FFFFFF" d="M106.658,242.067c4.529,0,8.194-3.669,8.194-8.193s-3.664-8.193-8.193-8.193h-0.08
		c-4.529,0-8.153,3.669-8.153,8.193S102.129,242.067,106.658,242.067z"/>
	<path fill="#F2F2F6" d="M180.314,127.366c4.529,0,8.194-3.669,8.194-8.193s-3.664-8.193-8.193-8.193h-0.08
		c-4.529,0-8.153,3.669-8.153,8.193S175.785,127.366,180.314,127.366z"/>
	<path fill="#F2F2F6" d="M180.314,192.91c4.529,0,8.194-3.669,8.194-8.193c0-4.524-3.664-8.193-8.193-8.193h-0.08
		c-4.529,0-8.153,3.669-8.153,8.193C172.082,189.241,175.785,192.91,180.314,192.91z"/>
	<path fill="#F2F2F6" d="M180.314,258.453c4.529,0,8.194-3.669,8.194-8.193s-3.664-8.193-8.193-8.193h-0.08
		c-4.529,0-8.153,3.669-8.153,8.193S175.785,258.453,180.314,258.453z"/>
	<path fill="#FFFFFF" d="M180.315,143.753h-0.08c-4.529,0-8.153,3.669-8.153,8.193c0,0.417,0.041,0.823,0.102,1.222l12.111-8.382
		C183.117,144.13,181.761,143.753,180.315,143.753z"/>
	<path fill="#FFFFFF" d="M180.314,160.139c4.529,0,8.193-3.669,8.194-8.193c0-3.08-1.7-5.76-4.213-7.16l-12.111,8.382
		C172.781,157.111,176.202,160.139,180.314,160.139z"/>
	<path fill="#FFFFFF" d="M180.314,225.681c4.529,0,8.194-3.669,8.194-8.193s-3.664-8.193-8.193-8.193h-0.08
		c-4.529,0-8.153,3.669-8.153,8.193S175.785,225.681,180.314,225.681z"/>
	<path fill="#FFFFFF" d="M155.736,143.752c4.529,0,8.193-3.668,8.194-8.193c0-4.524-3.664-8.193-8.193-8.193h-0.08
		c-4.529,0-8.153,3.669-8.153,8.193C147.503,140.083,151.207,143.752,155.736,143.752z"/>
	<path fill="#FFFFFF" d="M155.736,209.296c4.529,0,8.194-3.669,8.194-8.193s-3.664-8.193-8.193-8.193h-0.08
		c-4.529,0-8.153,3.669-8.153,8.193S151.207,209.296,155.736,209.296z"/>
	<path fill="#F2F2F6" d="M155.737,160.139h-0.08c-4.529,0-8.153,3.669-8.153,8.193c0,0.611,0.073,1.205,0.201,1.779l12.493-8.646
		C158.914,160.629,157.384,160.139,155.737,160.139z"/>
	<path fill="#F2F2F6" d="M155.736,176.524c4.529,0,8.194-3.669,8.194-8.193c0-2.879-1.487-5.406-3.732-6.868l-12.493,8.646
		C148.525,173.778,151.819,176.524,155.736,176.524z"/>
	<path fill="#F2F2F6" d="M155.736,242.067c4.529,0,8.194-3.669,8.194-8.193s-3.664-8.193-8.193-8.193h-0.08
		c-4.529,0-8.153,3.669-8.153,8.193S151.207,242.067,155.736,242.067z"/>
	<path fill="#F2F2F6" d="M204.974,127.366h-0.08c-4.529,0-8.153,3.669-8.153,8.193c0,0.2,0.016,0.396,0.03,0.593l11.612-8.037
		C207.344,127.639,206.193,127.366,204.974,127.366z"/>
	<path fill="#F2F2F6" d="M204.973,143.752c4.529,0,8.193-3.668,8.194-8.193c0-3.307-1.962-6.15-4.784-7.444l-11.612,8.037
		C197.079,140.398,200.645,143.752,204.973,143.752z"/>
	<path fill="#F2F2F6" d="M204.973,209.296c4.529,0,8.194-3.669,8.194-8.193s-3.664-8.193-8.193-8.193h-0.08
		c-4.529,0-8.153,3.669-8.153,8.193S200.444,209.296,204.973,209.296z"/>
	<path fill="#FFFFFF" d="M204.973,176.524c4.529,0,8.194-3.669,8.194-8.193c0-4.524-3.664-8.193-8.193-8.193h-0.08
		c-4.529,0-8.153,3.669-8.153,8.193C196.741,172.856,200.444,176.524,204.973,176.524z"/>
	<path fill="#FFFFFF" d="M204.973,242.067c4.529,0,8.194-3.669,8.194-8.193s-3.664-8.193-8.193-8.193h-0.08
		c-4.529,0-8.153,3.669-8.153,8.193S200.444,242.067,204.973,242.067z"/>
	<path fill="#F2F2F6" d="M16.458,353.011c0,6.634,1.331,12.953,3.713,18.727h233.88v-46.817H16.458V353.011z"/>
	<polygon fill="#E1E1E6" points="7,363.494 3,360.333 7,350.404 7,332.75 0,326.783 0,373.972 7,363.75 	"/>
	<rect x="16.516" y="326.782" fill="#E1E1E6" width="0.001" height="0.001"/>
	<polygon fill="#E1E1E6" points="20.242,373.958 20.248,373.972 20.26,373.972 	"/>
	<polygon fill="#E1E1E6" points="7,350.404 9,345.44 9,326.782 0,326.782 0,326.783 7,332.75 	"/>
	<polygon fill="#E1E1E6" points="9,365.074 7,363.494 7,363.75 0,373.972 9,373.972 	"/>
	<polygon fill="#E1E1E6" points="20.242,373.958 9,365.074 9,373.972 20.248,373.972 	"/>
	<polygon fill="#E1E1E6" points="16.516,326.782 9,326.782 9,345.44 16.516,326.783 	"/>
	<polygon fill="#E1E1E6" points="3,360.333 7,363.494 7,350.404 	"/>
	<path fill="#E1E1E6" d="M16.517,355.096v-28.313h-0.001v28.314c0,6.679,1.33,13.046,3.726,18.861l0.018,0.014
		C17.859,368.152,16.517,361.783,16.517,355.096z"/>
	<polygon fill="#E1E1E6" points="7,350.404 7,363.494 9,365.074 9,345.44 	"/>
	<path fill="#E1E1E6" d="M16.516,355.097v-28.314L9,345.44v19.635l11.242,8.884C17.846,368.143,16.516,361.776,16.516,355.097z"/>
	<polygon fill="#FFFFFF" stroke="#000000" stroke-miterlimit="10" points="508.031,402.169 508.031,402.169 508.031,402.169 	"/>
	<g>
		<polygon fill="#95CC81" points="511.909,402.17 511.909,402.169 511.908,402.17 		"/>
		<path fill="#95CC81" d="M495.523,90.839H254.051v52.428c4.16-1.013,8.626-0.382,12.398,1.914l174.168,106.016h0
			c2.622,1.596,2.622,5.402-0.001,6.998L266.448,364.212c-3.771,2.296-8.237,2.928-12.397,1.915v36.042h257.858V107.226
			C511.909,98.175,504.572,90.839,495.523,90.839z"/>
		<path fill="#7DBD80" d="M254.051,409.135v9.419h241.472c9.049,0,16.385-7.336,16.386-16.385l-9.921,6.966H254.051z"/>
		<polygon fill="#7DBD80" points="254.051,409.135 501.987,409.135 511.908,402.17 511.909,402.169 254.051,402.169 		"/>
		<path fill="#FFE07D" d="M257.929,189.154L257.929,189.154c36.198,0,65.543,29.345,65.542,65.542c0,0.537-0.007,1.072-0.02,1.607
			l0,0.001c0,0,0.001,0,0.001,0.001c-0.145,6.03-1.101,11.85-2.77,17.371c0,0-0.001-0.001-0.001-0.001
			c-8.138,26.944-33.154,46.563-62.752,46.563c-1.302,0-2.593-0.049-3.877-0.124v46.011c4.16,1.013,8.626,0.381,12.397-1.915
			l174.168-106.016c2.623-1.596,2.623-5.402,0.001-6.998h0L266.449,145.182c-3.772-2.296-8.238-2.928-12.398-1.914v46.007
			C255.335,189.2,256.626,189.154,257.929,189.154z"/>
		<path fill="#5055A0" d="M320.68,273.675c-20.513-12.543-42.97-21.875-66.629-27.789v74.229c1.284,0.075,2.574,0.124,3.877,0.124
			C287.526,320.238,312.542,300.619,320.68,273.675z"/>
		<path fill="#5055A0" d="M323.45,256.304l0-0.001c0.013-0.535,0.02-1.071,0.02-1.607c0.001-36.197-29.344-65.542-65.542-65.542l0,0
			c-1.302,0-2.594,0.046-3.878,0.121v39.818C278.564,234.806,301.936,243.942,323.45,256.304z"/>
		<path fill="#FFFFFF" d="M320.68,273.675c0,0,0.001,0.001,0.001,0.001c1.669-5.521,2.625-11.341,2.77-17.371
			c0,0-0.001,0-0.001-0.001l-2.77,17.37C320.68,273.674,320.68,273.675,320.68,273.675z"/>
		<path fill="#FFFFFF" d="M254.051,245.886c23.659,5.914,46.116,15.247,66.629,27.789c0,0,0-0.001,0-0.001l2.77-17.37
			c-21.514-12.362-44.886-21.498-69.399-27.211V245.886z"/>
	</g>
</g>
</svg>
